<?xml version="1.0" encoding="utf-8"?>
<!-- Generator: Adobe Illustrator 25.4.1, SVG Export Plug-In . SVG Version: 6.00 Build 0)  -->
<svg version="1.1" id="Capa_1" xmlns="http://www.w3.org/2000/svg" xmlns:xlink="http://www.w3.org/1999/xlink" x="0px"
	y="0px" viewBox="0 0 266.4 347.6" style="enable-background:new 0 0 266.4 347.6;" xml:space="preserve">
	<style type="text/css">
		.st0 {
			fill: currentColor;
		}
	</style>
	<path class="st0" d="M257.8,277.3c1-10.8-0.3-20.7-4-29.5c-3.7-8.9-9.5-16-17.3-21.5c-8.2-5.5-17.6-8.6-28.2-9.4
	c-9-0.7-17.2,0.3-24.7,2.8c-7.5,2.5-14.1,5.8-19.7,9.8c-5.6,4-11.7,9-18.3,14.8L107.9,209l40.4-23.8l0.3,0.1l29.1-16.9l0-0.1
	c1.9-1.1,3.9-2.3,6.1-3.4l0.2,0l1.6-0.9l52.9,55.7l5-50.6l-25.1-26.5c19.3-15.9,29.9-34.5,31.9-55.7l0.3-6.7l0-0.1
	c0.2-12.7-2-23.7-6.5-33.1c-4.5-9.4-11.1-16.9-19.9-22.2c-8.7-5.6-19.2-8.8-31.6-9.7c-3.4-0.2-5.4-0.3-6.1-0.3
	c-11.8-0.1-23,2.7-33.6,8.2c-10.5,5.6-21.4,14.4-32.6,26.5l-7.3-6.9c-6.5-6.4-11.5-11-15-13.8c-3.5-2.8-7.4-5.1-11.6-7
	c-4.8-2.2-10.2-3.6-16.4-4c-10.7-0.8-20.5,0.9-29.6,5.2C31.4,27.1,24,33.4,18.2,41.8c-5.4,8.5-8.7,18-9.7,28.4
	c-1,10.8,0.3,20.7,4,29.5c3.7,8.9,9.5,16,17.3,21.5c8.2,5.5,17.6,8.6,28.2,9.4c9,0.7,17.2-0.3,24.7-2.8c7.5-2.5,14.1-5.8,19.7-9.8
	c5.6-4,11.7-9,18.3-14.8l37.6,35.4l-40.4,23.8l-0.3-0.1l-29.1,16.9l0,0.1c-1.9,1.1-3.9,2.3-6.1,3.4l-0.2,0l-1.6,0.9l-52.9-55.7
	l-5,50.6L48,204.9c-19.3,15.9-29.9,34.5-31.9,55.7l-0.3,6.7l0,0.1c-0.2,12.7,2,23.7,6.5,33.1c4.5,9.4,11.1,16.9,19.9,22.2
	c8.7,5.6,19.2,8.8,31.6,9.7c3.4,0.2,5.4,0.3,6.1,0.3c11.8,0.1,23-2.7,33.6-8.2c10.5-5.6,21.4-14.4,32.6-26.5l7.3,6.9
	c6.5,6.4,11.5,11,15,13.8c3.5,2.8,7.4,5.1,11.6,7c4.8,2.2,10.2,3.6,16.4,4c10.7,0.8,20.5-0.9,29.6-5.2c9.1-4.2,16.5-10.5,22.3-18.9
	C253.6,297.2,256.8,287.8,257.8,277.3z M98,73.8c-7.8,8-14.3,13.6-19.6,16.8C73,93.8,68,95.2,63.3,94.9c-6.3-0.5-11-2.6-14.1-6.4
	c-3.1-3.8-4.4-9-3.8-15.6c0.6-6.5,3-11.4,7.1-14.6s9.5-4.6,16.2-4.1c3.5,0.3,6.5,1,9,2.1c2.5,1.2,5.4,3.2,8.5,6
	C88.6,64.3,92.5,68.2,98,73.8z M146.4,74.3c7.9-8.1,15-13.9,21.4-17.3c6.4-3.4,12.9-4.8,19.5-4.4c5.4,0.4,10,2,13.9,4.8
	c3.9,2.8,6.8,6.6,8.7,11.4c2,4.8,2.7,10.4,2.1,16.8c-0.6,6.2-2.5,11.8-5.7,16.9c-3.2,5.1-8,10-14.3,14.9L146.4,74.3z M120,273.3
	c-7.9,8.1-15,13.9-21.4,17.3c-6.4,3.4-12.9,4.8-19.5,4.4c-5.4-0.4-10-2-13.9-4.8c-3.9-2.8-6.8-6.6-8.7-11.4
	c-2-4.8-2.7-10.4-2.1-16.8c0.6-6.2,2.5-11.8,5.7-16.9c3.2-5.1,8-10,14.3-14.9L120,273.3z M221,274.6c-0.6,6.5-3,11.4-7.1,14.6
	c-4.1,3.3-9.5,4.6-16.2,4.1c-3.5-0.3-6.5-1-9-2.1c-2.5-1.2-5.4-3.2-8.5-6c-2.4-2.1-6.3-5.9-11.8-11.6c7.8-8,14.3-13.6,19.6-16.8
	c5.3-3.2,10.3-4.6,15.1-4.2c6.3,0.5,11,2.6,14.1,6.4C220.4,262.9,221.6,268,221,274.6z" />
</svg>