<?xml version="1.0" encoding="utf-8"?>
<!-- Generator: Adobe Illustrator 25.4.1, SVG Export Plug-In . SVG Version: 6.00 Build 0)  -->
<svg version="1.1" id="bdb32097-c7da-4698-bd1c-b47a49c527cf"
	 xmlns="http://www.w3.org/2000/svg" xmlns:xlink="http://www.w3.org/1999/xlink" x="0px" y="0px" viewBox="0 0 221 106"
	 style="enable-background:new 0 0 221 106;" xml:space="preserve">
<style type="text/css">
	.st0{fill:#1D1D1B;}
	.st1{fill:#F9B233;}
	.st2{fill:#FFFFFF;}
	.st3{fill:#F8B133;}
</style>
<path class="st0" d="M-3-2"/>
<path class="st0" d="M-3-2"/>
<path class="st1" d="M-3-2"/>
<g>
	<path class="st2" d="M10.6,50.4c0.9-0.8,1.9-1.5,3.1-2.1c1.1-0.6,2.4-1.2,3.8-1.8c-1.9-1.3-3.6-2.5-5-3.7c-1.4-1.1-2.5-2.3-3.3-3.4
		C7,36.1,5.9,32.2,5.9,27.6c0-3.9,0.9-7.5,2.6-10.9s4.2-6.3,7.4-8.9c6.8-5.3,15-8,24.6-8c9.5,0,17.6,2.7,24.3,8
		c3.2,2.6,5.7,5.6,7.5,9s2.7,7,2.7,10.8c0,4.2-0.8,7.7-2.5,10.5s-4.7,5.6-9.1,8.4c2.5,1.1,4.8,2.4,6.8,3.9
		c7.4,5.3,11.1,12.9,11.1,22.7S77.5,91,69.9,97.3c-7.4,6-17.1,9-29.1,9c-12.3,0-22.3-3-29.9-8.9C3.3,91.2-0.5,83-0.5,73
		C-0.5,63.5,3.2,56,10.6,50.4z M41,54.3c-7.5,0-13.4,1.7-17.6,5c-4.2,3.4-6.3,7.9-6.3,13.6c0,5.7,2.1,10.3,6.4,13.8s9.9,5.3,17,5.3
		c7,0,12.6-1.8,16.9-5.3s6.4-8.1,6.4-13.8c0-5.7-2.1-10.2-6.2-13.6C53.5,56,47.9,54.3,41,54.3z M40.6,14c-5.1,0-9.3,1.3-12.5,3.8
		c-3.3,2.5-4.9,5.8-4.9,9.8c0,3.5,1.6,6.3,4.8,8.5s7.4,3.2,12.6,3.2c5.1,0,9.2-1.1,12.4-3.3s4.7-5.1,4.7-8.6c0-4-1.6-7.2-4.8-9.7
		C49.7,15.3,45.6,14,40.6,14z"/>
	<path class="st2" d="M141.9,17.7h-28.2c-1.8,0-3.3,0.1-4.4,0.1c-1.1,0.1-1.9,0.3-2.4,0.5c-1.2,0.3-1.8,1.6-1.8,3.8
		c0,0.4,0,1,0.1,1.7c0,0.7,0.1,1.5,0.2,2.3s0.2,1.6,0.2,2.4c0.1,0.8,0.1,1.5,0.1,2c0,6.4-2.5,9.6-7.5,9.6c-4.9,0-7.4-2.8-7.4-8.3
		c0-0.6,0-1.4,0-2.3s0.1-2,0.2-3.1c0.1-1,0.2-2,0.2-2.9c0-1,0.1-1.7,0.1-2.2c0-1.4,0-2.6,0-3.6s-0.1-1.9-0.2-2.7
		c0-0.7,0-1.4-0.1-2.1c0-0.9,0-1.6,0-2.3c0-1.8,0.1-3.2,0.4-4.2c0.2-1,0.8-1.8,1.5-2.3c0.8-0.5,1.9-0.9,3.3-1.1
		c1.4-0.2,3.4-0.2,5.9-0.2h35.4c0.6,0,1.4,0,2.3,0c0.9,0,2-0.1,3.3-0.2c0.6,0,1.2,0,1.9-0.1c0.6,0,1.4-0.1,2.2-0.1
		c1.1-0.1,2.4-0.2,3.9-0.2s3,0,4.4,0c7.3,0,11,2.4,11,7.2c0,2.6-1.5,5.4-4.4,8.3l-22.8,21.9c8.5,0.3,15.4,3.1,20.6,8.4
		c5.7,5.7,8.6,12.9,8.6,21.5c0,10.7-4.1,19.6-12.2,26.6V96c-3.8,3.5-8.2,6.1-13.3,7.7c-5.1,1.7-10.7,2.5-16.9,2.5
		c-11.3,0-20.8-2.8-28.4-8.3c-8-5.7-11.9-12.9-11.9-21.3c0-2.5,0.4-4.9,1.2-7.1c0.8-2.3,1.9-4.2,3.4-5.8c1.4-1.6,3.2-2.9,5.1-3.8
		c2-0.9,4.1-1.4,6.4-1.4c3.2,0,5.8,1,7.9,2.9c2,1.9,3.1,4.4,3.1,7.4c0,5.8-3.4,8.9-10.2,9.2c0.4,3.5,2.7,6.7,6.8,9.5
		c2.3,1.6,5,2.8,8,3.7c3,0.9,6.1,1.3,9.3,1.3c3.5,0,6.8-0.5,9.9-1.6s5.8-2.6,8.1-4.6c2.1-2.1,3.8-4.5,5-7.3s1.8-5.7,1.8-8.9
		c0-11.1-6.3-16.7-18.9-16.7c-3.2,0-7,0.4-11.3,1.2c-0.5,0.1-1,0.2-1.4,0.2c-0.4,0.1-0.9,0.1-1.5,0.1c-3.9,0-5.9-1.9-5.9-5.7
		c0-1.7,1-3.5,3-5.4L141.9,17.7z"/>
	<path class="st3" d="M179.2,82.5c0.2,3.6,1,6.5,2.5,8.8c2.8,4.2,7.6,6.3,14.6,6.3c3.1,0,5.9-0.5,8.5-1.4c4.9-1.8,7.4-5,7.4-9.6
		c0-3.5-1-5.9-3.1-7.4c-2.1-1.4-5.5-2.7-10-3.8l-8.3-1.9c-5.5-1.3-9.3-2.7-11.6-4.2c-3.9-2.7-5.9-6.6-5.9-11.9
		c0-5.7,1.9-10.4,5.8-14.1c3.8-3.7,9.3-5.5,16.3-5.5c6.5,0,12,1.6,16.5,4.8s6.8,8.4,6.8,15.4h-8.1c-0.4-3.4-1.3-6-2.7-7.8
		c-2.5-3.3-6.8-5-12.8-5c-4.9,0-8.4,1.1-10.5,3.2c-2.1,2.1-3.2,4.6-3.2,7.4c0,3.1,1.3,5.4,3.8,6.8c1.7,0.9,5.4,2.1,11.2,3.5l8.6,2
		c4.2,1,7.4,2.3,9.6,4c3.9,3,5.9,7.3,5.9,12.9c0,7-2.5,12.1-7.5,15.1s-10.8,4.5-17.4,4.5c-7.7,0-13.7-2-18.1-6.1
		c-4.4-4-6.5-9.5-6.4-16.3h8.1V82.5z"/>
</g>
</svg>
